{
 "cells": [
  {
   "cell_type": "code",
   "execution_count": 10,
   "metadata": {},
   "outputs": [],
   "source": [
    "import speech_recognition as sr \n",
    "import moviepy.editor as mp\n",
    "from moviepy.video.io.ffmpeg_tools import ffmpeg_extract_subclip"
   ]
  },
  {
   "cell_type": "code",
   "execution_count": 11,
   "metadata": {},
   "outputs": [
    {
     "name": "stdout",
     "output_type": "stream",
     "text": [
      "The video is 88 seconds\n"
     ]
    }
   ],
   "source": [
    "num_seconds_video= 88\n",
    "print(\"The video is {} seconds\".format(num_seconds_video))\n",
    "l=list(range(0,num_seconds_video+1,60))\n",
    "\n",
    "diz={}"
   ]
  },
  {
   "cell_type": "code",
   "execution_count": 12,
   "metadata": {},
   "outputs": [
    {
     "name": "stdout",
     "output_type": "stream",
     "text": [
      "Moviepy - Running:\n",
      ">>> \"+ \" \".join(cmd)\n",
      "Moviepy - Command returned an error\n"
     ]
    },
    {
     "ename": "OSError",
     "evalue": "ffmpeg version 4.2.2 Copyright (c) 2000-2019 the FFmpeg developers\r\n  built with gcc 9.2.1 (GCC) 20200122\r\n  configuration: --enable-gpl --enable-version3 --enable-sdl2 --enable-fontconfig --enable-gnutls --enable-iconv --enable-libass --enable-libdav1d --enable-libbluray --enable-libfreetype --enable-libmp3lame --enable-libopencore-amrnb --enable-libopencore-amrwb --enable-libopenjpeg --enable-libopus --enable-libshine --enable-libsnappy --enable-libsoxr --enable-libtheora --enable-libtwolame --enable-libvpx --enable-libwavpack --enable-libwebp --enable-libx264 --enable-libx265 --enable-libxml2 --enable-libzimg --enable-lzma --enable-zlib --enable-gmp --enable-libvidstab --enable-libvorbis --enable-libvo-amrwbenc --enable-libmysofa --enable-libspeex --enable-libxvid --enable-libaom --enable-libmfx --enable-amf --enable-ffnvcodec --enable-cuvid --enable-d3d11va --enable-nvenc --enable-nvdec --enable-dxva2 --enable-avisynth --enable-libopenmpt\r\n  libavutil      56. 31.100 / 56. 31.100\r\n  libavcodec     58. 54.100 / 58. 54.100\r\n  libavformat    58. 29.100 / 58. 29.100\r\n  libavdevice    58.  8.100 / 58.  8.100\r\n  libavfilter     7. 57.100 /  7. 57.100\r\n  libswscale      5.  5.100 /  5.  5.100\r\n  libswresample   3.  5.100 /  3.  5.100\r\n  libpostproc    55.  5.100 / 55.  5.100\r\nInput #0, mov,mp4,m4a,3gp,3g2,mj2, from 'DATASET.mp4':\r\n  Metadata:\r\n    major_brand     : isom\r\n    minor_version   : 512\r\n    compatible_brands: isomiso2avc1mp41\r\n    creation_time   : 2022-10-18T12:22:31.000000Z\r\n  Duration: 00:01:38.31, start: 0.000000, bitrate: 425 kb/s\r\n    Stream #0:0(eng): Video: h264 (High) (avc1 / 0x31637661), yuv420p(tv, bt470bg/bt470bg/smpte170m), 1280x508, 290 kb/s, 30 fps, 30 tbr, 90k tbn, 180k tbc (default)\r\n    Metadata:\r\n      creation_time   : 2022-10-18T12:22:29.000000Z\r\n      handler_name    : VideoHandle\r\n    Stream #0:1(eng): Audio: aac (LC) (mp4a / 0x6134706D), 44100 Hz, stereo, fltp, 128 kb/s (default)\r\n    Metadata:\r\n      creation_time   : 2022-10-18T12:22:29.000000Z\r\n      handler_name    : SoundHandle\r\n./chunks/cut1.mp4: No such file or directory\r\n",
     "output_type": "error",
     "traceback": [
      "\u001b[1;31m---------------------------------------------------------------------------\u001b[0m",
      "\u001b[1;31mOSError\u001b[0m                                   Traceback (most recent call last)",
      "Cell \u001b[1;32mIn [12], line 2\u001b[0m\n\u001b[0;32m      1\u001b[0m \u001b[39mfor\u001b[39;00m i \u001b[39min\u001b[39;00m \u001b[39mrange\u001b[39m(\u001b[39mlen\u001b[39m(l)\u001b[39m-\u001b[39m\u001b[39m1\u001b[39m):\n\u001b[1;32m----> 2\u001b[0m     ffmpeg_extract_subclip(\u001b[39m\"\u001b[39;49m\u001b[39mDATASET.mp4\u001b[39;49m\u001b[39m\"\u001b[39;49m, l[i]\u001b[39m-\u001b[39;49m\u001b[39m2\u001b[39;49m\u001b[39m*\u001b[39;49m(l[i]\u001b[39m!=\u001b[39;49m\u001b[39m0\u001b[39;49m), l[i\u001b[39m+\u001b[39;49m\u001b[39m1\u001b[39;49m], targetname\u001b[39m=\u001b[39;49m\u001b[39m\"\u001b[39;49m\u001b[39m./chunks/cut\u001b[39;49m\u001b[39m{}\u001b[39;49;00m\u001b[39m.mp4\u001b[39;49m\u001b[39m\"\u001b[39;49m\u001b[39m.\u001b[39;49mformat(i\u001b[39m+\u001b[39;49m\u001b[39m1\u001b[39;49m))\n\u001b[0;32m      3\u001b[0m     clip \u001b[39m=\u001b[39m mp\u001b[39m.\u001b[39mVideoFileClip(\u001b[39mr\u001b[39m\u001b[39m\"\u001b[39m\u001b[39mchunks/cut\u001b[39m\u001b[39m{}\u001b[39;00m\u001b[39m.mp4\u001b[39m\u001b[39m\"\u001b[39m\u001b[39m.\u001b[39mformat(i\u001b[39m+\u001b[39m\u001b[39m1\u001b[39m)) \n\u001b[0;32m      4\u001b[0m     clip\u001b[39m.\u001b[39maudio\u001b[39m.\u001b[39mwrite_audiofile(\u001b[39mr\u001b[39m\u001b[39m\"\u001b[39m\u001b[39mconverted/converted\u001b[39m\u001b[39m{}\u001b[39;00m\u001b[39m.wav\u001b[39m\u001b[39m\"\u001b[39m\u001b[39m.\u001b[39mformat(i\u001b[39m+\u001b[39m\u001b[39m1\u001b[39m))\n",
      "File \u001b[1;32mc:\\Users\\51CAR10\\AppData\\Local\\Programs\\Python\\Python310\\lib\\site-packages\\moviepy\\video\\io\\ffmpeg_tools.py:41\u001b[0m, in \u001b[0;36mffmpeg_extract_subclip\u001b[1;34m(filename, t1, t2, targetname)\u001b[0m\n\u001b[0;32m     33\u001b[0m     targetname \u001b[39m=\u001b[39m \u001b[39m\"\u001b[39m\u001b[39m%s\u001b[39;00m\u001b[39mSUB\u001b[39m\u001b[39m%d\u001b[39;00m\u001b[39m_\u001b[39m\u001b[39m%d\u001b[39;00m\u001b[39m.\u001b[39m\u001b[39m%s\u001b[39;00m\u001b[39m\"\u001b[39m \u001b[39m%\u001b[39m (name, T1, T2, ext)\n\u001b[0;32m     35\u001b[0m cmd \u001b[39m=\u001b[39m [get_setting(\u001b[39m\"\u001b[39m\u001b[39mFFMPEG_BINARY\u001b[39m\u001b[39m\"\u001b[39m),\u001b[39m\"\u001b[39m\u001b[39m-y\u001b[39m\u001b[39m\"\u001b[39m,\n\u001b[0;32m     36\u001b[0m        \u001b[39m\"\u001b[39m\u001b[39m-ss\u001b[39m\u001b[39m\"\u001b[39m, \u001b[39m\"\u001b[39m\u001b[39m%0.2f\u001b[39;00m\u001b[39m\"\u001b[39m\u001b[39m%\u001b[39mt1,\n\u001b[0;32m     37\u001b[0m        \u001b[39m\"\u001b[39m\u001b[39m-i\u001b[39m\u001b[39m\"\u001b[39m, filename,\n\u001b[0;32m     38\u001b[0m        \u001b[39m\"\u001b[39m\u001b[39m-t\u001b[39m\u001b[39m\"\u001b[39m, \u001b[39m\"\u001b[39m\u001b[39m%0.2f\u001b[39;00m\u001b[39m\"\u001b[39m\u001b[39m%\u001b[39m(t2\u001b[39m-\u001b[39mt1),\n\u001b[0;32m     39\u001b[0m        \u001b[39m\"\u001b[39m\u001b[39m-map\u001b[39m\u001b[39m\"\u001b[39m, \u001b[39m\"\u001b[39m\u001b[39m0\u001b[39m\u001b[39m\"\u001b[39m, \u001b[39m\"\u001b[39m\u001b[39m-vcodec\u001b[39m\u001b[39m\"\u001b[39m, \u001b[39m\"\u001b[39m\u001b[39mcopy\u001b[39m\u001b[39m\"\u001b[39m, \u001b[39m\"\u001b[39m\u001b[39m-acodec\u001b[39m\u001b[39m\"\u001b[39m, \u001b[39m\"\u001b[39m\u001b[39mcopy\u001b[39m\u001b[39m\"\u001b[39m, targetname]\n\u001b[1;32m---> 41\u001b[0m subprocess_call(cmd)\n",
      "File \u001b[1;32mc:\\Users\\51CAR10\\AppData\\Local\\Programs\\Python\\Python310\\lib\\site-packages\\moviepy\\tools.py:54\u001b[0m, in \u001b[0;36msubprocess_call\u001b[1;34m(cmd, logger, errorprint)\u001b[0m\n\u001b[0;32m     52\u001b[0m     \u001b[39mif\u001b[39;00m errorprint:\n\u001b[0;32m     53\u001b[0m         logger(message\u001b[39m=\u001b[39m\u001b[39m'\u001b[39m\u001b[39mMoviepy - Command returned an error\u001b[39m\u001b[39m'\u001b[39m)\n\u001b[1;32m---> 54\u001b[0m     \u001b[39mraise\u001b[39;00m \u001b[39mIOError\u001b[39;00m(err\u001b[39m.\u001b[39mdecode(\u001b[39m'\u001b[39m\u001b[39mutf8\u001b[39m\u001b[39m'\u001b[39m))\n\u001b[0;32m     55\u001b[0m \u001b[39melse\u001b[39;00m:\n\u001b[0;32m     56\u001b[0m     logger(message\u001b[39m=\u001b[39m\u001b[39m'\u001b[39m\u001b[39mMoviepy - Command successful\u001b[39m\u001b[39m'\u001b[39m)\n",
      "\u001b[1;31mOSError\u001b[0m: ffmpeg version 4.2.2 Copyright (c) 2000-2019 the FFmpeg developers\r\n  built with gcc 9.2.1 (GCC) 20200122\r\n  configuration: --enable-gpl --enable-version3 --enable-sdl2 --enable-fontconfig --enable-gnutls --enable-iconv --enable-libass --enable-libdav1d --enable-libbluray --enable-libfreetype --enable-libmp3lame --enable-libopencore-amrnb --enable-libopencore-amrwb --enable-libopenjpeg --enable-libopus --enable-libshine --enable-libsnappy --enable-libsoxr --enable-libtheora --enable-libtwolame --enable-libvpx --enable-libwavpack --enable-libwebp --enable-libx264 --enable-libx265 --enable-libxml2 --enable-libzimg --enable-lzma --enable-zlib --enable-gmp --enable-libvidstab --enable-libvorbis --enable-libvo-amrwbenc --enable-libmysofa --enable-libspeex --enable-libxvid --enable-libaom --enable-libmfx --enable-amf --enable-ffnvcodec --enable-cuvid --enable-d3d11va --enable-nvenc --enable-nvdec --enable-dxva2 --enable-avisynth --enable-libopenmpt\r\n  libavutil      56. 31.100 / 56. 31.100\r\n  libavcodec     58. 54.100 / 58. 54.100\r\n  libavformat    58. 29.100 / 58. 29.100\r\n  libavdevice    58.  8.100 / 58.  8.100\r\n  libavfilter     7. 57.100 /  7. 57.100\r\n  libswscale      5.  5.100 /  5.  5.100\r\n  libswresample   3.  5.100 /  3.  5.100\r\n  libpostproc    55.  5.100 / 55.  5.100\r\nInput #0, mov,mp4,m4a,3gp,3g2,mj2, from 'DATASET.mp4':\r\n  Metadata:\r\n    major_brand     : isom\r\n    minor_version   : 512\r\n    compatible_brands: isomiso2avc1mp41\r\n    creation_time   : 2022-10-18T12:22:31.000000Z\r\n  Duration: 00:01:38.31, start: 0.000000, bitrate: 425 kb/s\r\n    Stream #0:0(eng): Video: h264 (High) (avc1 / 0x31637661), yuv420p(tv, bt470bg/bt470bg/smpte170m), 1280x508, 290 kb/s, 30 fps, 30 tbr, 90k tbn, 180k tbc (default)\r\n    Metadata:\r\n      creation_time   : 2022-10-18T12:22:29.000000Z\r\n      handler_name    : VideoHandle\r\n    Stream #0:1(eng): Audio: aac (LC) (mp4a / 0x6134706D), 44100 Hz, stereo, fltp, 128 kb/s (default)\r\n    Metadata:\r\n      creation_time   : 2022-10-18T12:22:29.000000Z\r\n      handler_name    : SoundHandle\r\n./chunks/cut1.mp4: No such file or directory\r\n"
     ]
    }
   ],
   "source": [
    "for i in range(len(l)-1):\n",
    "    ffmpeg_extract_subclip(\"DATASET.mp4\", l[i]-2*(l[i]!=0), l[i+1], targetname=\"chunks/cut{}.mp4\".format(i+1))\n",
    "    clip = mp.VideoFileClip(r\"chunks/cut{}.mp4\".format(i+1)) \n",
    "    clip.audio.write_audiofile(r\"converted/converted{}.wav\".format(i+1))\n",
    "    r = sr.Recognizer()\n",
    "    audio = sr.AudioFile(\"converted/converted{}.wav\".format(i+1))\n",
    "    with audio as source:\n",
    "      r.adjust_for_ambient_noise(source)  \n",
    "      audio_file = r.record(source)\n",
    "    result = r.recognize_google(audio_file)\n",
    "    diz['chunk{}'.format(i+1)]=result\n",
    "l_chunks=[diz['chunk{}'.format(i+1)] for i in range(len(diz))]\n",
    "text='\\n'.join(l_chunks)"
   ]
  },
  {
   "cell_type": "code",
   "execution_count": null,
   "metadata": {},
   "outputs": [],
   "source": [
    "with open('recognized.txt',mode ='w') as file: \n",
    "   file.write(\"Recognized Speech:\") \n",
    "   file.write(\"\\n\") \n",
    "   file.write(text) \n",
    "   print(\"Finally ready!\")"
   ]
  }
 ],
 "metadata": {
  "kernelspec": {
   "display_name": "Python 3.10.8 64-bit",
   "language": "python",
   "name": "python3"
  },
  "language_info": {
   "codemirror_mode": {
    "name": "ipython",
    "version": 3
   },
   "file_extension": ".py",
   "mimetype": "text/x-python",
   "name": "python",
   "nbconvert_exporter": "python",
   "pygments_lexer": "ipython3",
   "version": "3.10.8"
  },
  "orig_nbformat": 4,
  "vscode": {
   "interpreter": {
    "hash": "5241b983c16894d23db08c641f06bcc82647968be3a377b647217132a4e6da66"
   }
  }
 },
 "nbformat": 4,
 "nbformat_minor": 2
}
